inDegrees=no
num_controls=7
num_derivatives=13
num_iterations=254
num_multipliers=7
num_parameters=0
num_slacks=7
num_states=26
objective=6.390562
objective_accelerations=0.417080
objective_balance=0.047294
objective_effort=0.435312
objective_height=5.399223
objective_ligament=0.091654
solver_duration=2273.015218
status=Solve_Succeeded
success=true
DataType=double
version=3
OpenSimVersion=4.4-2022-07-23-0e9fedc
endheader
time	/jointset/ground_pelvis/pelvis_tilt/value	/jointset/ground_pelvis/pelvis_tx/value	/jointset/ground_pelvis/pelvis_ty/value	/jointset/hip_r/hip_flexion_r/value	/jointset/hip_r/hip_adduction_r/value	/jointset/hip_r/hip_rotation_r/value	/jointset/back/lumbar_extension/value	/jointset/patellofemoral_r/patellar_flexion_r/value	/jointset/knee_r/knee_flexion_r/value	/jointset/knee_r/knee_adduction_r/value	/jointset/knee_r/knee_rotation_r/value	/jointset/ankle_r/ankle_angle_r/value	/jointset/subtalar_r/subtalar_angle_r/value	/jointset/ground_pelvis/pelvis_tilt/speed	/jointset/ground_pelvis/pelvis_tx/speed	/jointset/ground_pelvis/pelvis_ty/speed	/jointset/hip_r/hip_flexion_r/speed	/jointset/hip_r/hip_adduction_r/speed	/jointset/hip_r/hip_rotation_r/speed	/jointset/back/lumbar_extension/speed	/jointset/patellofemoral_r/patellar_flexion_r/speed	/jointset/knee_r/knee_flexion_r/speed	/jointset/knee_r/knee_adduction_r/speed	/jointset/knee_r/knee_rotation_r/speed	/jointset/ankle_r/ankle_angle_r/speed	/jointset/subtalar_r/subtalar_angle_r/speed	/forceset/tau_hip_flexion_r	/forceset/tau_hip_adduction_r	/forceset/tau_hip_rotation_r	/forceset/tau_knee_flexion_r	/forceset/tau_ankle_angle_r	/forceset/tau_subtalar_angle_r	/forceset/tau_lumbar_extension	lambda_cid13_p0	lambda_cid14_p0	lambda_cid14_p1	lambda_cid14_p2	lambda_cid14_p3	lambda_cid14_p4	lambda_cid14_p5	/jointset/ground_pelvis/pelvis_tilt/accel	/jointset/ground_pelvis/pelvis_tx/accel	/jointset/ground_pelvis/pelvis_ty/accel	/jointset/hip_r/hip_flexion_r/accel	/jointset/hip_r/hip_adduction_r/accel	/jointset/hip_r/hip_rotation_r/accel	/jointset/back/lumbar_extension/accel	/jointset/patellofemoral_r/patellar_flexion_r/accel	/jointset/knee_r/knee_flexion_r/accel	/jointset/knee_r/knee_adduction_r/accel	/jointset/knee_r/knee_rotation_r/accel	/jointset/ankle_r/ankle_angle_r/accel	/jointset/subtalar_r/subtalar_angle_r/accel	gamma_cid13_p0	gamma_cid14_p0	gamma_cid14_p1	gamma_cid14_p2	gamma_cid14_p3	gamma_cid14_p4	gamma_cid14_p5
1	-0.1965926179449634	0.03748888806623	0.7463885043173425	1.118955275900311	-0.2367685497050023	-0.06919366365102388	-0.4363045265047364	1.16470421427239	1.164704214272381	-0.02854953680791186	0.1745327161445758	0.4363122982627176	0.1029831434435997	0.001033547488055139	0.004562820539945413	0.01300607251663181	-0.03829095454165216	0.001656386808415785	-0.009933257379243547	0.003291311342250287	-0.04576326477278373	-0.04576326477278411	0.0007922629200391078	-6.759586580973112e-06	-0.00982385989271618	-0.000745155260300216	-0.2084885454338061	0.01760915250072061	0.01334098777919699	-0.439866290662938	-0.04915721896445934	0.01284823885417734	0.2505180113685833	-2.83335827930768	-62.52180813163586	-4.195793910142904	-0.2090498593578224	20.11611411941153	-772.4489290105025	64.75055728587631	1.00320461100731	0.01747901789194762	1.260063906907299	-3.987696770007636	0.1264676043315875	-0.6413454022868832	0.2529838876387414	-4.360875672652445	-4.36087567265238	0.4291033793161804	0.002856582242783678	-1.558738166304318	-0.3732122876053779	8.445126203830629e-10	-2.948297531622975e-09	3.024088236566455e-09	7.658732076401396e-09	7.412377806704143e-09	-4.20252003790425e-09	9.191176744115244e-10
1.01	-0.1965331233533966	0.0375355344647462	0.7465813848450628	1.118374078315162	-0.2367457376846583	-0.06932445409322527	-0.4362569345533108	1.164028881319238	1.16402888131923	-0.02851957860136378	0.174532641307371	0.4361363460354337	0.1029569764369772	0.01082636539225754	0.004782877509877756	0.02556455110932387	-0.07792568753953076	0.002903530594586602	-0.01622074792271079	0.006361113367408099	-0.08930001975542214	-0.08930001975542215	0.005206455621195503	-7.476183212845663e-06	-0.02534690786917054	-0.004484283182812001	-0.2091222274862257	0.01770471214035874	0.01333691989491842	-0.4392587976597128	-0.04955794412499667	0.01288381871872081	0.2511887022611424	-2.85938097424314	-62.65065128967665	-4.194827464775043	-0.2184259671297554	19.99377862452886	-772.6546638335453	64.69978422669236	0.9614702302958582	0.02673267237263297	1.252916560824214	-3.947929798764234	0.1234675394311171	-0.621837608878113	0.3540835236012209	-4.349579786830768	-4.349579786830631	0.4486397793638381	-0.001422832308130803	-1.546137116245902	-0.373665446500345	1.449819351840536e-09	-9.855208847304701e-10	9.17115040815225e-09	1.390039217769052e-08	4.447863709701011e-09	-4.92725397484509e-09	7.31582187031366e-09
1.02	-0.1963768706127567	0.03758487416012811	0.7468996855037843	1.117397219753209	-0.2367105282717119	-0.06951799678657115	-0.4361746235489063	1.162918279941108	1.162918279941106	-0.02844526595502195	0.1745325818938339	0.4358057535277984	0.1028935376707458	0.02038517730322251	0.005101479913085839	0.03809009871690949	-0.1174231499008554	0.00413586532760864	-0.02248370760622969	0.01023512193842708	-0.1328169497685092	-0.1328169497685091	0.00966315087629682	-3.67484752253274e-06	-0.04075191596281951	-0.008199507182376038	-0.2097559095386929	0.01780027177999059	0.01333285201063263	-0.4386513046564968	-0.04995866928553627	0.01291939858325284	0.2518593931536564	-2.902476509799126	-62.78988799436225	-4.191795317491495	-0.2325695789107889	19.89220456971757	-773.0239372757031	64.66993249546641	0.9564034123597616	0.03718810454718832	1.253477709886012	-3.960242642696895	0.1235057937018006	-0.6364392302972504	0.4138251968109538	-4.356910678742146	-4.356910678742116	0.4376038901051745	0.003760168707283882	-1.535130189743089	-0.3684315030158238	2.252902924230168e-09	-8.651105155282283e-10	1.383437649100868e-08	2.063314163506553e-08	5.119124833519645e-09	-8.132408814047764e-09	1.173368463276066e-08
1.03	-0.1961261909669058	0.03763792792214852	0.7473430803025186	1.116025968451531	-0.2366630742285151	-0.06977403332058489	-0.4360494623394122	1.161372496375487	1.161372496375483	-0.0283261203088675	0.1745325736559024	0.4353216782607044	0.1027930598702398	0.02971063417091263	0.005529346454029201	0.0505834593039818	-0.1568125329825621	0.005352264201996388	-0.02871782857946445	0.01494298804232275	-0.1763475277097372	-0.1763475277097362	0.01417826287723074	1.070673023457748e-06	-0.05604568779200515	-0.01189226314271627	-0.2102750781930399	0.01788179564591013	0.01334263678202081	-0.4379555719104656	-0.05012905481987778	0.01290441604206433	0.2524807952605795	-2.962996132815782	-62.84859820382935	-4.199776160311927	-0.2413555849279015	19.71583182381254	-773.2583855059006	64.60257060463022	0.9146003030253742	0.04859819338198572	1.246452682076699	-3.926098670437819	0.1203103968094814	-0.6160312288209234	0.5211475294543778	-4.352296621324038	-4.352296621323839	0.4603093816886157	-0.001305367414568278	-1.52388432101447	-0.369122890480548	3.058004627649721e-09	-7.634998022207957e-10	1.848246138928623e-08	2.737090220831896e-08	5.827485704489542e-09	-1.136287407062047e-08	1.613135513568259e-08
1.04	-0.1957834600565697	0.03769586280248178	0.7479112461969151	1.114261260813121	-0.2366035355040678	-0.07009223760393683	-0.4358728464264276	1.159391173976552	1.15939117397655	-0.02816145463737049	0.1745325854509334	0.4346851885470165	0.1026557694605445	0.0387954302006671	0.006077703575654196	0.06304431784934163	-0.1961144172454755	0.006552801576472169	-0.03491725747206464	0.02052606263722323	-0.2199247164314016	-0.2199247164314004	0.01876715594221513	3.317478563095796e-07	-0.07123480528151584	-0.0155620290205547	-0.2107942468474417	0.01796331951182472	0.01335242155338753	-0.4372598391644449	-0.05029944035422032	0.01288943350086746	0.2531021973674509	-3.041456951197827	-62.91766376044581	-4.2055721270229	-0.2550565810509359	19.55837395486512	-773.6571698210688	64.55660542430009	0.9082712447725558	0.0612862206836118	1.246977301543517	-3.942742878938285	0.1203334937193949	-0.6295008141703342	0.5888668950118926	-4.366232834829411	-4.366232834829485	0.4523601029152809	0.002663279564662524	-1.514199321807937	-0.3638334865154258	3.772002638294655e-09	1.778198583637771e-10	2.268420234306785e-08	3.441297911128239e-08	5.022032210399279e-09	-1.297727291133929e-08	2.008759516276227e-08
1.05	-0.1953510512462521	0.03775986677838759	0.7486037956832756	1.11210406830467	-0.236532089574588	-0.07047223358211938	-0.4356361980501931	1.15697395460312	1.156973954603118	-0.02795049629355539	0.1745325862811127	0.4338973049658861	0.1024818638682078	0.04764719201674237	0.006741577014741129	0.0754536051471887	-0.2352972146318766	0.007732542249587349	-0.04107249076926225	0.02693535584394192	-0.2635158139370051	-0.2635158139370083	0.02343966178694271	-5.598088182601371e-07	-0.08632679703249312	-0.01921725089406881	-0.2109570955432636	0.01792789801310826	0.01337204450574656	-0.4363568177623901	-0.05023889539941	0.01286481458895001	0.2534018028938841	-3.138504636150429	-62.88601871201839	-4.192098373294054	-0.278478835248696	19.37370613118329	-773.5880008608418	64.51889978871142	0.8677591111253073	0.07171154243767788	1.236105378547685	-3.902016580352734	0.1162258950470514	-0.6071146598191901	0.6867220186429848	-4.355047464499799	-4.355047464500338	0.4769707349032075	-0.001514856328319334	-1.504433246332486	-0.3660814615718382	4.483153658540383e-09	1.145380423550756e-09	2.687199504858398e-08	4.146456589954926e-08	4.169272017400895e-09	-1.454116967656268e-08	2.403004048747187e-08
1.06	-0.194831298725555	0.0378310642160681	0.7494200782295428	1.109555854139967	-0.2364489599301835	-0.07091349790774659	-0.4353315044448686	1.154120924403419	1.15412092440342	-0.0276923579093493	0.1745325682991146	0.4329589546383278	0.102271463072377	0.05626417227682066	0.007516395930593725	0.08779092983066308	-0.2743187484927464	0.008889544560279213	-0.04717092695944	0.03413510845629061	-0.3070868816855674	-0.3070868816855752	0.02820316401774397	-3.430687284759535e-06	-0.1013281545670629	-0.02286106971968154	-0.2111199442391787	0.01789247651438897	0.0133916674580581	-0.43545379636035	-0.05017835044459648	0.01284019567703006	0.25370140842023	-3.254915668498154	-62.8646475887945	-4.176301858734511	-0.3069792746493817	19.20593119170634	-773.6831791433688	64.50321892064585	0.8613149335730745	0.08347531603684874	1.232584778668982	-3.910490173832115	0.1157858212347159	-0.6181413927663569	0.746958776137864	-4.362226883421137	-4.362226883421246	0.4705593801300435	0.002267415206288548	-1.496072478526267	-0.3615528769351191	5.331609692237536e-09	1.956822707803984e-09	2.894533425865122e-08	4.942405649719625e-08	3.879005096955522e-09	-1.625330234575409e-08	2.589480281735289e-08
1.07	-0.1942265199823931	0.03791056296565459	0.7503593258194994	1.106618277261413	-0.2363543937076379	-0.07141545613796833	-0.434950960309108	1.15083234675745	1.150832346757451	-0.02738610147938473	0.1745325412876743	0.4318710250435894	0.1020246504343772	0.0646529056312488	0.008401752735520069	0.1000414151798001	-0.313162172752681	0.01001916522653355	-0.05320923058150309	0.04209902614852674	-0.3506186247390978	-0.3506186247391092	0.03306503506550386	-2.618871352354758e-06	-0.1162441223833647	-0.026500402138508	-0.2109908487473328	0.01781693635561046	0.01342027044694647	-0.434355073751542	-0.04989781429036413	0.01276790282459551	0.2537446060106754	-3.391582762341104	-62.75248875390191	-4.167241995359208	-0.3322033648860547	19.00363627473897	-773.3838074425421	64.44275820202604	0.8218537073209529	0.09382639539924355	1.21870084693388	-3.866098984762284	0.1108805349305252	-0.594947135175934	0.8399043835937056	-4.347145850450985	-4.347145850451325	0.4965407402781107	-0.001096029761345521	-1.48731395297984	-0.364953228754418	6.187369184096999e-09	2.759960828177756e-09	3.090620253810947e-08	5.743183985066135e-08	3.618658031433186e-09	-1.797331990345443e-08	2.764905009431748e-08
1.08	-0.193539013671498	0.03799946738982663	0.7514205623497267	1.103293300053726	-0.2362486652093007	-0.07197745186206929	-0.4344870177728605	1.147108752114119	1.14710875211412	-0.02703071838429103	0.1745325055754764	0.4306343447667281	0.101741478511311	0.07280968582340236	0.009397530847702154	0.1121887178847989	-0.3517988143201369	0.01112199971717366	-0.05917842573354321	0.05081478855383676	-0.3940902811579075	-0.3940902811579208	0.03802849704043433	-5.170837342137913e-06	-0.1310782909915731	-0.03013292673325614	-0.2108617532554783	0.01774139619683467	0.01344887343578262	-0.4332563511427385	-0.04961727813613476	0.01269560997216568	0.253787803601128	-3.549530381923705	-62.65048289070011	-4.155609916104745	-0.3628061536567467	18.81625213616456	-773.2481639483926	64.4053665629598	0.8149243011180601	0.1055595774881069	1.211948249841364	-3.869133635336438	0.1104285861118551	-0.6043196987617483	0.8973277187526045	-4.350209556476987	-4.350209556476777	0.4908775655641933	0.001594658821864264	-1.479712636907419	-0.3601913121194264	7.147852264705943e-09	3.591158918914547e-09	3.028601185701038e-08	6.622343009237624e-08	3.564506501633773e-09	-1.943113667991457e-08	2.688524720700017e-08
